  0
SECTION
  2
HEADER
  0
ENDSEC
  0
SECTION
  2
TABLES
  0
TABLE
  2
LAYER
  70
1
  0
LAYER
  2
TOP
  70
0
  62
7
  6
CONTINUOUS
  0
ENDTAB
  0
ENDSEC
  0
SECTION
  2
ENTITIES
  0
LINE
  8
TOP
  6
CONTINUOUS
  10
35.34383269322395
  20
-0.45195312500000007
  11
35.34383269322395
  21
0.796484375
  0
LINE
  8
TOP
  6
CONTINUOUS
  10
35.34383269322395
  20
0.796484375
  11
98.94908237647593
  21
0.796484375
  0
LINE
  8
TOP
  6
CONTINUOUS
  10
98.94908237647593
  20
0.796484375
  11
98.94908237647593
  21
10
  0
LINE
  8
TOP
  6
CONTINUOUS
  10
98.94908237647593
  20
10
  11
100.54205112647594
  21
10
  0
LINE
  8
TOP
  6
CONTINUOUS
  10
100.54205112647594
  20
10
  11
100.54205112647594
  21
9.548046875
  0
LINE
  8
TOP
  6
CONTINUOUS
  10
100.54205112647594
  20
9.548046875
  11
135.0893994446999
  21
9.548046875
  0
LINE
  8
TOP
  6
CONTINUOUS
  10
135.0893994446999
  20
9.548046875
  11
135.0893994446999
  21
10.796484375
  0
LINE
  8
TOP
  6
CONTINUOUS
  10
135.0893994446999
  20
10.796484375
  11
148.82186575221388
  21
10.796484375
  0
LINE
  8
TOP
  6
CONTINUOUS
  10
148.82186575221388
  20
10.796484375
  11
148.82186575221388
  21
20
  0
LINE
  8
TOP
  6
CONTINUOUS
  10
148.82186575221388
  20
20
  11
149.9841704397139
  21
20
  0
LINE
  8
TOP
  6
CONTINUOUS
  10
149.9841704397139
  20
20
  11
149.9841704397139
  21
55.53198972117381
  0
LINE
  8
TOP
  6
CONTINUOUS
  10
149.9841704397139
  20
55.53198972117381
  11
181.65323911509213
  21
55.53198972117381
  0
LINE
  8
TOP
  6
CONTINUOUS
  10
181.65323911509213
  20
55.53198972117381
  11
181.65323911509213
  21
111.59304544996073
  0
LINE
  8
TOP
  6
CONTINUOUS
  10
181.65323911509213
  20
111.59304544996073
  11
173.64451686812257
  21
119.6017676969303
  0
LINE
  8
TOP
  6
CONTINUOUS
  10
173.64451686812257
  20
119.6017676969303
  11
117.58346113933564
  21
119.6017676969303
  0
LINE
  8
TOP
  6
CONTINUOUS
  10
117.58346113933564
  20
119.6017676969303
  11
117.58346113933564
  21
63.54071196814337
  0
LINE
  8
TOP
  6
CONTINUOUS
  10
117.58346113933564
  20
63.54071196814337
  11
125.59218338630521
  21
55.53198972117381
  0
LINE
  8
TOP
  6
CONTINUOUS
  10
125.59218338630521
  20
55.53198972117381
  11
149.25252981471388
  21
55.53198972117381
  0
LINE
  8
TOP
  6
CONTINUOUS
  10
149.25252981471388
  20
55.53198972117381
  11
149.25252981471388
  21
20
  0
LINE
  8
TOP
  6
CONTINUOUS
  10
149.25252981471388
  20
20
  11
150.4148345022139
  21
20
  0
LINE
  8
TOP
  6
CONTINUOUS
  10
150.4148345022139
  20
20
  11
150.4148345022139
  21
10.890743114983671
  0
LINE
  8
TOP
  6
CONTINUOUS
  10
150.4148345022139
  20
10.890743114983671
  11
148.7276070122302
  21
9.203515625
  0
LINE
  8
TOP
  6
CONTINUOUS
  10
148.7276070122302
  20
9.203515625
  11
135.0893994446999
  21
9.203515625
  0
LINE
  8
TOP
  6
CONTINUOUS
  10
135.0893994446999
  20
9.203515625
  11
135.0893994446999
  21
10.451953125
  0
LINE
  8
TOP
  6
CONTINUOUS
  10
135.0893994446999
  20
10.451953125
  11
64.40173405825198
  21
10.451953125
  0
LINE
  8
TOP
  6
CONTINUOUS
  10
64.40173405825198
  20
10.451953125
  11
64.40173405825198
  21
10.796484375
  0
LINE
  8
TOP
  6
CONTINUOUS
  10
64.40173405825198
  20
10.796484375
  11
50.669267750737966
  21
10.796484375
  0
LINE
  8
TOP
  6
CONTINUOUS
  10
50.669267750737966
  20
10.796484375
  11
50.669267750737966
  21
20
  0
LINE
  8
TOP
  6
CONTINUOUS
  10
50.669267750737966
  20
20
  11
50.238603688237966
  21
20
  0
LINE
  8
TOP
  6
CONTINUOUS
  10
50.238603688237966
  20
20
  11
50.238603688237966
  21
55.53198972117381
  0
LINE
  8
TOP
  6
CONTINUOUS
  10
50.238603688237966
  20
55.53198972117381
  11
81.9076723636162
  21
55.53198972117381
  0
LINE
  8
TOP
  6
CONTINUOUS
  10
81.9076723636162
  20
55.53198972117381
  11
81.9076723636162
  21
111.59304544996073
  0
LINE
  8
TOP
  6
CONTINUOUS
  10
81.9076723636162
  20
111.59304544996073
  11
73.89895011664665
  21
119.6017676969303
  0
LINE
  8
TOP
  6
CONTINUOUS
  10
73.89895011664665
  20
119.6017676969303
  11
17.837894387859727
  21
119.6017676969303
  0
LINE
  8
TOP
  6
CONTINUOUS
  10
17.837894387859727
  20
119.6017676969303
  11
17.837894387859727
  21
63.54071196814337
  0
LINE
  8
TOP
  6
CONTINUOUS
  10
17.837894387859727
  20
63.54071196814337
  11
25.84661663482929
  21
55.53198972117381
  0
LINE
  8
TOP
  6
CONTINUOUS
  10
25.84661663482929
  20
55.53198972117381
  11
49.50696306323797
  21
55.53198972117381
  0
LINE
  8
TOP
  6
CONTINUOUS
  10
49.50696306323797
  20
55.53198972117381
  11
49.50696306323797
  21
20
  0
LINE
  8
TOP
  6
CONTINUOUS
  10
49.50696306323797
  20
20
  11
49.07629900073797
  21
20
  0
LINE
  8
TOP
  6
CONTINUOUS
  10
49.07629900073797
  20
20
  11
49.07629900073797
  21
10.890743114983671
  0
LINE
  8
TOP
  6
CONTINUOUS
  10
49.07629900073797
  20
10.890743114983671
  11
50.76352649072164
  21
9.203515625
  0
LINE
  8
TOP
  6
CONTINUOUS
  10
50.76352649072164
  20
9.203515625
  11
64.40173405825198
  21
9.203515625
  0
LINE
  8
TOP
  6
CONTINUOUS
  10
64.40173405825198
  20
9.203515625
  11
64.40173405825198
  21
9.548046875
  0
LINE
  8
TOP
  6
CONTINUOUS
  10
64.40173405825198
  20
9.548046875
  11
98.94908237647593
  21
9.548046875
  0
LINE
  8
TOP
  6
CONTINUOUS
  10
98.94908237647593
  20
9.548046875
  11
98.94908237647593
  21
10
  0
LINE
  8
TOP
  6
CONTINUOUS
  10
98.94908237647593
  20
10
  11
100.54205112647594
  21
10
  0
LINE
  8
TOP
  6
CONTINUOUS
  10
100.54205112647594
  20
10
  11
100.54205112647594
  21
0.8907431149836703
  0
LINE
  8
TOP
  6
CONTINUOUS
  10
100.54205112647594
  20
0.8907431149836703
  11
98.85482363649226
  21
-0.796484375
  0
LINE
  8
TOP
  6
CONTINUOUS
  10
98.85482363649226
  20
-0.796484375
  11
35.34383269322395
  21
-0.796484375
  0
LINE
  8
TOP
  6
CONTINUOUS
  10
35.34383269322395
  20
-0.796484375
  11
35.34383269322395
  21
0.45195312500000007
  0
LINE
  8
TOP
  6
CONTINUOUS
  10
35.34383269322395
  20
0.45195312500000007
  11
-35.34383269322395
  21
0.45195312500000007
  0
LINE
  8
TOP
  6
CONTINUOUS
  10
-35.34383269322395
  20
0.45195312500000007
  11
-35.34383269322395
  21
0.796484375
  0
LINE
  8
TOP
  6
CONTINUOUS
  10
-35.34383269322395
  20
0.796484375
  11
-98.94908237647593
  21
0.796484375
  0
LINE
  8
TOP
  6
CONTINUOUS
  10
-98.94908237647593
  20
0.796484375
  11
-98.94908237647593
  21
10
  0
LINE
  8
TOP
  6
CONTINUOUS
  10
-98.94908237647593
  20
10
  11
-98.94908237647593
  21
10
  0
LINE
  8
TOP
  6
CONTINUOUS
  10
-98.94908237647593
  20
10
  11
-98.94908237647593
  21
9.548046875
  0
LINE
  8
TOP
  6
CONTINUOUS
  10
-98.94908237647593
  20
9.548046875
  11
-64.40173405825198
  21
9.548046875
  0
LINE
  8
TOP
  6
CONTINUOUS
  10
-64.40173405825198
  20
9.548046875
  11
-64.40173405825198
  21
10.796484375
  0
LINE
  8
TOP
  6
CONTINUOUS
  10
-64.40173405825198
  20
10.796484375
  11
-50.669267750737966
  21
10.796484375
  0
LINE
  8
TOP
  6
CONTINUOUS
  10
-50.669267750737966
  20
10.796484375
  11
-50.669267750737966
  21
20
  0
LINE
  8
TOP
  6
CONTINUOUS
  10
-50.669267750737966
  20
20
  11
-49.50696306323797
  21
20
  0
LINE
  8
TOP
  6
CONTINUOUS
  10
-49.50696306323797
  20
20
  11
-49.50696306323797
  21
55.53198972117381
  0
LINE
  8
TOP
  6
CONTINUOUS
  10
-49.50696306323797
  20
55.53198972117381
  11
-17.837894387859727
  21
55.53198972117381
  0
LINE
  8
TOP
  6
CONTINUOUS
  10
-17.837894387859727
  20
55.53198972117381
  11
-17.837894387859727
  21
111.59304544996073
  0
LINE
  8
TOP
  6
CONTINUOUS
  10
-17.837894387859727
  20
111.59304544996073
  11
-25.84661663482929
  21
119.6017676969303
  0
LINE
  8
TOP
  6
CONTINUOUS
  10
-25.84661663482929
  20
119.6017676969303
  11
-81.9076723636162
  21
119.6017676969303
  0
LINE
  8
TOP
  6
CONTINUOUS
  10
-81.9076723636162
  20
119.6017676969303
  11
-81.9076723636162
  21
63.54071196814337
  0
LINE
  8
TOP
  6
CONTINUOUS
  10
-81.9076723636162
  20
63.54071196814337
  11
-73.89895011664665
  21
55.53198972117381
  0
LINE
  8
TOP
  6
CONTINUOUS
  10
-73.89895011664665
  20
55.53198972117381
  11
-50.238603688237966
  21
55.53198972117381
  0
LINE
  8
TOP
  6
CONTINUOUS
  10
-50.238603688237966
  20
55.53198972117381
  11
-50.238603688237966
  21
20
  0
LINE
  8
TOP
  6
CONTINUOUS
  10
-50.238603688237966
  20
20
  11
-49.07629900073797
  21
20
  0
LINE
  8
TOP
  6
CONTINUOUS
  10
-49.07629900073797
  20
20
  11
-49.07629900073797
  21
10.890743114983671
  0
LINE
  8
TOP
  6
CONTINUOUS
  10
-49.07629900073797
  20
10.890743114983671
  11
-50.76352649072164
  21
9.203515625
  0
LINE
  8
TOP
  6
CONTINUOUS
  10
-50.76352649072164
  20
9.203515625
  11
-64.40173405825198
  21
9.203515625
  0
LINE
  8
TOP
  6
CONTINUOUS
  10
-64.40173405825198
  20
9.203515625
  11
-64.40173405825198
  21
10.451953125
  0
LINE
  8
TOP
  6
CONTINUOUS
  10
-64.40173405825198
  20
10.451953125
  11
-135.0893994446999
  21
10.451953125
  0
LINE
  8
TOP
  6
CONTINUOUS
  10
-135.0893994446999
  20
10.451953125
  11
-135.0893994446999
  21
10.796484375
  0
LINE
  8
TOP
  6
CONTINUOUS
  10
-135.0893994446999
  20
10.796484375
  11
-148.82186575221388
  21
10.796484375
  0
LINE
  8
TOP
  6
CONTINUOUS
  10
-148.82186575221388
  20
10.796484375
  11
-148.82186575221388
  21
20
  0
LINE
  8
TOP
  6
CONTINUOUS
  10
-148.82186575221388
  20
20
  11
-149.25252981471388
  21
20
  0
LINE
  8
TOP
  6
CONTINUOUS
  10
-149.25252981471388
  20
20
  11
-149.25252981471388
  21
55.53198972117381
  0
LINE
  8
TOP
  6
CONTINUOUS
  10
-149.25252981471388
  20
55.53198972117381
  11
-117.58346113933564
  21
55.53198972117381
  0
LINE
  8
TOP
  6
CONTINUOUS
  10
-117.58346113933564
  20
55.53198972117381
  11
-117.58346113933564
  21
111.59304544996073
  0
LINE
  8
TOP
  6
CONTINUOUS
  10
-117.58346113933564
  20
111.59304544996073
  11
-125.59218338630521
  21
119.6017676969303
  0
LINE
  8
TOP
  6
CONTINUOUS
  10
-125.59218338630521
  20
119.6017676969303
  11
-181.65323911509213
  21
119.6017676969303
  0
LINE
  8
TOP
  6
CONTINUOUS
  10
-181.65323911509213
  20
119.6017676969303
  11
-181.65323911509213
  21
63.54071196814337
  0
LINE
  8
TOP
  6
CONTINUOUS
  10
-181.65323911509213
  20
63.54071196814337
  11
-173.64451686812257
  21
55.53198972117381
  0
LINE
  8
TOP
  6
CONTINUOUS
  10
-173.64451686812257
  20
55.53198972117381
  11
-149.9841704397139
  21
55.53198972117381
  0
LINE
  8
TOP
  6
CONTINUOUS
  10
-149.9841704397139
  20
55.53198972117381
  11
-149.9841704397139
  21
20
  0
LINE
  8
TOP
  6
CONTINUOUS
  10
-149.9841704397139
  20
20
  11
-150.4148345022139
  21
20
  0
LINE
  8
TOP
  6
CONTINUOUS
  10
-150.4148345022139
  20
20
  11
-150.4148345022139
  21
10.890743114983671
  0
LINE
  8
TOP
  6
CONTINUOUS
  10
-150.4148345022139
  20
10.890743114983671
  11
-148.7276070122302
  21
9.203515625
  0
LINE
  8
TOP
  6
CONTINUOUS
  10
-148.7276070122302
  20
9.203515625
  11
-135.0893994446999
  21
9.203515625
  0
LINE
  8
TOP
  6
CONTINUOUS
  10
-135.0893994446999
  20
9.203515625
  11
-135.0893994446999
  21
9.548046875
  0
LINE
  8
TOP
  6
CONTINUOUS
  10
-135.0893994446999
  20
9.548046875
  11
-100.54205112647594
  21
9.548046875
  0
LINE
  8
TOP
  6
CONTINUOUS
  10
-100.54205112647594
  20
9.548046875
  11
-100.54205112647594
  21
10
  0
LINE
  8
TOP
  6
CONTINUOUS
  10
-100.54205112647594
  20
10
  11
-100.54205112647594
  21
10
  0
LINE
  8
TOP
  6
CONTINUOUS
  10
-100.54205112647594
  20
10
  11
-100.54205112647594
  21
0.8907431149836703
  0
LINE
  8
TOP
  6
CONTINUOUS
  10
-100.54205112647594
  20
0.8907431149836703
  11
-98.85482363649226
  21
-0.796484375
  0
LINE
  8
TOP
  6
CONTINUOUS
  10
-98.85482363649226
  20
-0.796484375
  11
-35.34383269322395
  21
-0.796484375
  0
LINE
  8
TOP
  6
CONTINUOUS
  10
-35.34383269322395
  20
-0.796484375
  11
-35.34383269322395
  21
-0.45195312500000007
  0
LINE
  8
TOP
  6
CONTINUOUS
  10
-35.34383269322395
  20
-0.45195312500000007
  11
0
  21
-0.45195312500000007
  0
LINE
  8
TOP
  6
CONTINUOUS
  10
0
  20
-0.45195312500000007
  11
0
  21
-0.3
  0
LINE
  8
TOP
  6
CONTINUOUS
  10
0
  20
-0.3
  11
-0.3
  21
0
  0
LINE
  8
TOP
  6
CONTINUOUS
  10
-0.3
  20
0
  11
0
  21
0.3
  0
LINE
  8
TOP
  6
CONTINUOUS
  10
0
  20
0.3
  11
0.3
  21
0
  0
LINE
  8
TOP
  6
CONTINUOUS
  10
0.3
  20
0
  11
0
  21
-0.3
  0
LINE
  8
TOP
  6
CONTINUOUS
  10
0
  20
-0.3
  11
0
  21
-0.45195312500000007
  0
LINE
  8
TOP
  6
CONTINUOUS
  10
0
  20
-0.45195312500000007
  11
35.34383269322395
  21
-0.45195312500000007
  0
ENDSEC
  0
EOF