  0
SECTION
  2
HEADER
  0
ENDSEC
  0
SECTION
  2
TABLES
  0
TABLE
  2
LAYER
  70
1
  0
LAYER
  2
TOP
  70
0
  62
7
  6
CONTINUOUS
  0
ENDTAB
  0
ENDSEC
  0
SECTION
  2
ENTITIES
  0
LINE
  8
TOP
  6
CONTINUOUS
  10
64.1319544836725
  20
-0.45195312500000007
  11
64.1319544836725
  21
0.796484375
  0
LINE
  8
TOP
  6
CONTINUOUS
  10
64.1319544836725
  20
0.796484375
  11
98.94908237647593
  21
0.796484375
  0
LINE
  8
TOP
  6
CONTINUOUS
  10
98.94908237647593
  20
0.796484375
  11
98.94908237647593
  21
10
  0
LINE
  8
TOP
  6
CONTINUOUS
  10
98.94908237647593
  20
10
  11
100.54205112647594
  21
10
  0
LINE
  8
TOP
  6
CONTINUOUS
  10
100.54205112647594
  20
10
  11
100.54205112647594
  21
40.45226890049487
  0
LINE
  8
TOP
  6
CONTINUOUS
  10
100.54205112647594
  20
40.45226890049487
  11
102.13501987647594
  21
40.45226890049487
  0
LINE
  8
TOP
  6
CONTINUOUS
  10
102.13501987647594
  20
40.45226890049487
  11
102.13501987647594
  21
10
  0
LINE
  8
TOP
  6
CONTINUOUS
  10
102.13501987647594
  20
10
  11
168.05513602354634
  21
10
  0
LINE
  8
TOP
  6
CONTINUOUS
  10
168.05513602354634
  20
10
  11
168.05513602354634
  21
126.31795094548673
  0
LINE
  8
TOP
  6
CONTINUOUS
  10
168.05513602354634
  20
126.31795094548673
  11
31.43599747940553
  21
126.31795094548673
  0
LINE
  8
TOP
  6
CONTINUOUS
  10
31.43599747940553
  20
126.31795094548673
  11
31.43599747940553
  21
10
  0
LINE
  8
TOP
  6
CONTINUOUS
  10
31.43599747940553
  20
10
  11
97.35611362647593
  21
10
  0
LINE
  8
TOP
  6
CONTINUOUS
  10
97.35611362647593
  20
10
  11
97.35611362647593
  21
40.45226890049487
  0
LINE
  8
TOP
  6
CONTINUOUS
  10
97.35611362647593
  20
40.45226890049487
  11
98.94908237647593
  21
40.45226890049487
  0
LINE
  8
TOP
  6
CONTINUOUS
  10
98.94908237647593
  20
40.45226890049487
  11
98.94908237647593
  21
10
  0
LINE
  8
TOP
  6
CONTINUOUS
  10
98.94908237647593
  20
10
  11
100.54205112647594
  21
10
  0
LINE
  8
TOP
  6
CONTINUOUS
  10
100.54205112647594
  20
10
  11
100.54205112647594
  21
0.8907431149836703
  0
LINE
  8
TOP
  6
CONTINUOUS
  10
100.54205112647594
  20
0.8907431149836703
  11
98.85482363649226
  21
-0.796484375
  0
LINE
  8
TOP
  6
CONTINUOUS
  10
98.85482363649226
  20
-0.796484375
  11
64.1319544836725
  21
-0.796484375
  0
LINE
  8
TOP
  6
CONTINUOUS
  10
64.1319544836725
  20
-0.796484375
  11
64.1319544836725
  21
0.45195312500000007
  0
LINE
  8
TOP
  6
CONTINUOUS
  10
64.1319544836725
  20
0.45195312500000007
  11
-64.1319544836725
  21
0.45195312500000007
  0
LINE
  8
TOP
  6
CONTINUOUS
  10
-64.1319544836725
  20
0.45195312500000007
  11
-64.1319544836725
  21
0.796484375
  0
LINE
  8
TOP
  6
CONTINUOUS
  10
-64.1319544836725
  20
0.796484375
  11
-98.94908237647593
  21
0.796484375
  0
LINE
  8
TOP
  6
CONTINUOUS
  10
-98.94908237647593
  20
0.796484375
  11
-98.94908237647593
  21
10
  0
LINE
  8
TOP
  6
CONTINUOUS
  10
-98.94908237647593
  20
10
  11
-98.94908237647593
  21
10
  0
LINE
  8
TOP
  6
CONTINUOUS
  10
-98.94908237647593
  20
10
  11
-98.94908237647593
  21
40.45226890049487
  0
LINE
  8
TOP
  6
CONTINUOUS
  10
-98.94908237647593
  20
40.45226890049487
  11
-97.35611362647593
  21
40.45226890049487
  0
LINE
  8
TOP
  6
CONTINUOUS
  10
-97.35611362647593
  20
40.45226890049487
  11
-97.35611362647593
  21
10
  0
LINE
  8
TOP
  6
CONTINUOUS
  10
-97.35611362647593
  20
10
  11
-31.43599747940553
  21
10
  0
LINE
  8
TOP
  6
CONTINUOUS
  10
-31.43599747940553
  20
10
  11
-31.43599747940553
  21
126.31795094548673
  0
LINE
  8
TOP
  6
CONTINUOUS
  10
-31.43599747940553
  20
126.31795094548673
  11
-168.05513602354634
  21
126.31795094548673
  0
LINE
  8
TOP
  6
CONTINUOUS
  10
-168.05513602354634
  20
126.31795094548673
  11
-168.05513602354634
  21
10
  0
LINE
  8
TOP
  6
CONTINUOUS
  10
-168.05513602354634
  20
10
  11
-102.13501987647594
  21
10
  0
LINE
  8
TOP
  6
CONTINUOUS
  10
-102.13501987647594
  20
10
  11
-102.13501987647594
  21
40.45226890049487
  0
LINE
  8
TOP
  6
CONTINUOUS
  10
-102.13501987647594
  20
40.45226890049487
  11
-100.54205112647594
  21
40.45226890049487
  0
LINE
  8
TOP
  6
CONTINUOUS
  10
-100.54205112647594
  20
40.45226890049487
  11
-100.54205112647594
  21
10
  0
LINE
  8
TOP
  6
CONTINUOUS
  10
-100.54205112647594
  20
10
  11
-100.54205112647594
  21
10
  0
LINE
  8
TOP
  6
CONTINUOUS
  10
-100.54205112647594
  20
10
  11
-100.54205112647594
  21
0.8907431149836703
  0
LINE
  8
TOP
  6
CONTINUOUS
  10
-100.54205112647594
  20
0.8907431149836703
  11
-98.85482363649226
  21
-0.796484375
  0
LINE
  8
TOP
  6
CONTINUOUS
  10
-98.85482363649226
  20
-0.796484375
  11
-64.1319544836725
  21
-0.796484375
  0
LINE
  8
TOP
  6
CONTINUOUS
  10
-64.1319544836725
  20
-0.796484375
  11
-64.1319544836725
  21
-0.45195312500000007
  0
LINE
  8
TOP
  6
CONTINUOUS
  10
-64.1319544836725
  20
-0.45195312500000007
  11
0
  21
-0.45195312500000007
  0
LINE
  8
TOP
  6
CONTINUOUS
  10
0
  20
-0.45195312500000007
  11
0
  21
-0.3
  0
LINE
  8
TOP
  6
CONTINUOUS
  10
0
  20
-0.3
  11
-0.3
  21
0
  0
LINE
  8
TOP
  6
CONTINUOUS
  10
-0.3
  20
0
  11
0
  21
0.3
  0
LINE
  8
TOP
  6
CONTINUOUS
  10
0
  20
0.3
  11
0.3
  21
0
  0
LINE
  8
TOP
  6
CONTINUOUS
  10
0.3
  20
0
  11
0
  21
-0.3
  0
LINE
  8
TOP
  6
CONTINUOUS
  10
0
  20
-0.3
  11
0
  21
-0.45195312500000007
  0
LINE
  8
TOP
  6
CONTINUOUS
  10
0
  20
-0.45195312500000007
  11
64.1319544836725
  21
-0.45195312500000007
  0
ENDSEC
  0
EOF